<svg width="32" height="32" viewBox="0 0 170 170" fill="none" xmlns="http://www.w3.org/2000/svg">
    <path d="M160.185 160.186H9.921V9.921h150.264v150.265ZM164.646 1H5.461A4.46 4.46 0 0 0 1 5.46v159.186a4.461 4.461 0 0 0 4.46 4.461h159.186a4.461 4.461 0 0 0 4.461-4.461V5.461A4.462 4.462 0 0 0 164.646 1Z" fill="#0dffe0" stroke="#0dffe0" stroke-width="2" />
    <path d="M56.063 41s-18.142 21.77 0 43.54c18.141 21.771 0 43.541 0 43.541M85.09 41s-18.142 21.77 0 43.54c18.141 21.771 0 43.541 0 43.541M114.117 41s-18.141 21.77 0 43.54c18.142 21.771 0 43.541 0 43.541" stroke="#0dffe0" stroke-width="11" stroke-linecap="round" stroke-linejoin="round" />
</svg>